HIERARCHY
ROOT root
{
	OFFSET 0.000000 0.000000 0.000000
	CHANNELS 6 Xposition Yposition Zposition Zrotation Yrotation Xrotation
	JOINT lhip
	{
		OFFSET 0.058581 -0.082280 -0.017664
		CHANNELS 3 Zrotation Yrotation Xrotation
		JOINT lknee
		{
			OFFSET 0.043451 -0.386469 0.008037
			CHANNELS 3 Zrotation Yrotation Xrotation
			JOINT lankle
			{
				OFFSET -0.014790 -0.426874 -0.037428
				CHANNELS 3 Zrotation Yrotation Xrotation
				JOINT ltoe
				{
					OFFSET 0.041054 -0.060286 0.122042
					CHANNELS 3 Zrotation Yrotation Xrotation
					End Site
					{
						OFFSET 0.000000 0.000000 0.000000
					}
				}
			}
		}
	}
	JOINT rhip
	{
		OFFSET -0.060310 -0.090513 -0.013543
		CHANNELS 3 Zrotation Yrotation Xrotation
		JOINT rknee
		{
			OFFSET -0.043257 -0.383688 -0.004843
			CHANNELS 3 Zrotation Yrotation Xrotation
			JOINT rankle
			{
				OFFSET 0.019056 -0.420046 -0.034562
				CHANNELS 3 Zrotation Yrotation Xrotation
				JOINT rtoe
				{
					OFFSET -0.034840 -0.062106 0.130323
					CHANNELS 3 Zrotation Yrotation Xrotation
					End Site
					{
						OFFSET 0.000000 0.000000 0.000000
					}
				}
			}
		}
	}
	JOINT lowerback
	{
		OFFSET 0.004439 0.124404 -0.038385
		CHANNELS 3 Zrotation Yrotation Xrotation
		JOINT upperback
		{
			OFFSET 0.004488 0.137956 0.026820
			CHANNELS 3 Zrotation Yrotation Xrotation
			JOINT chest
			{
				OFFSET -0.002265 0.056032 0.002855
				CHANNELS 3 Zrotation Yrotation Xrotation
				JOINT lowerneck
				{
					OFFSET -0.013390 0.211636 -0.033468
					CHANNELS 3 Zrotation Yrotation Xrotation
					JOINT upperneck
					{
						OFFSET 0.010113 0.088937 0.050410
						CHANNELS 3 Zrotation Yrotation Xrotation
						End Site
						{
							OFFSET 0.000000 0.000000 0.000000
						}
					}
				}
				JOINT lclavicle
				{
					OFFSET 0.071702 0.114000 -0.018898
					CHANNELS 3 Zrotation Yrotation Xrotation
					JOINT lshoulder
					{
						OFFSET 0.122921 0.045205 -0.019046
						CHANNELS 3 Zrotation Yrotation Xrotation
						JOINT lelbow
						{
							OFFSET 0.255332 -0.015649 -0.022946
							CHANNELS 3 Zrotation Yrotation Xrotation
							JOINT lwrist
							{
								OFFSET 0.265709 0.012698 -0.007375
								CHANNELS 3 Zrotation Yrotation Xrotation
								End Site
								{
									OFFSET 0.000000 0.000000 0.000000
								}
							}
						}
					}
				}
				JOINT rclavicle
				{
					OFFSET -0.082954 0.112472 -0.023707
					CHANNELS 3 Zrotation Yrotation Xrotation
					JOINT rshoulder
					{
						OFFSET -0.113228 0.046853 -0.008472
						CHANNELS 3 Zrotation Yrotation Xrotation
						JOINT relbow
						{
							OFFSET -0.260127 -0.014369 -0.031269
							CHANNELS 3 Zrotation Yrotation Xrotation
							JOINT rwrist
							{
								OFFSET -0.269108 0.006794 -0.006027
								CHANNELS 3 Zrotation Yrotation Xrotation
								End Site
								{
									OFFSET 0.000000 0.000000 0.000000
								}
							}
						}
					}
				}
			}
		}
	}
}
MOTION
Frames: 10
Frame Time: 0.033333
-0.113608 0.285758 0.995889 96.628744 1.203391 85.492245 0.493749 -2.371115 3.504988 -5.331647 -14.179970 6.511168 4.206220 4.140307 -9.420634 0.000000 -0.000000 0.000000 0.903885 -5.283708 -0.842708 0.931840 -1.709653 14.878267 0.163988 -13.016252 -10.999848 0.000000 -0.000000 0.000000 0.791395 1.510609 10.496947 -5.820505 3.464701 -5.280084 -2.178988 -0.164063 -0.491360 6.345899 -8.984064 -6.901278 0.100712 -1.179555 9.809148 -27.033704 3.816294 1.738261 -55.330984 3.120634 12.148941 7.301905 -28.934206 11.561904 4.051048 -3.506363 -18.181106 8.017563 18.923762 -6.109194 23.753345 41.577103 1.074826 -10.848706 25.171945 1.080019 3.357618 5.872960 5.566047 
-0.113251 0.284638 0.995742 95.713284 1.136640 85.376954 0.502498 -2.134411 3.808902 -5.294386 -13.544870 6.248537 4.300693 4.336507 -9.441191 0.000000 -0.000000 0.000000 0.932620 -5.223188 -0.829758 0.876373 -1.283378 14.968605 -0.021994 -12.634755 -10.981744 0.000000 -0.000000 0.000000 0.773872 1.822574 10.111528 -5.719419 3.848562 -4.398997 -2.063787 0.364072 -0.532754 6.081313 -8.713098 -7.657996 0.275001 -1.521442 9.465172 -26.955875 2.976048 1.998768 -55.316749 2.589883 11.893938 7.420459 -28.710388 10.909968 4.420669 -3.542171 -17.883910 8.482577 20.407419 -5.226197 25.090128 42.126819 2.050472 -10.292523 25.930188 2.423639 3.333542 6.389104 5.619913 
-0.113665 0.283494 0.995920 95.530141 1.093996 85.409600 0.503455 -1.608037 3.770293 -5.188144 -13.474854 6.067698 4.160974 4.528741 -9.419625 0.000000 -0.000000 0.000000 1.013108 -5.053535 -0.901259 0.758026 -1.274473 14.927398 -0.045437 -12.457710 -10.898840 0.000000 -0.000000 0.000000 0.871391 1.916804 10.159444 -5.743075 4.189770 -4.173173 -1.961837 0.724040 -0.723669 6.019519 -9.060416 -8.027309 0.264444 -2.041811 9.456860 -26.702216 2.051805 2.310904 -55.471083 2.552270 11.798640 7.730962 -28.746483 10.542708 4.862101 -3.288211 -17.430952 7.885429 21.906278 -5.051065 25.410997 43.443488 2.182668 -9.985126 26.972637 3.184904 2.708178 6.848688 5.881169 
-0.114528 0.282194 0.996154 95.597151 1.100808 85.354961 0.459625 -1.095134 3.930447 -4.841404 -12.867670 5.738980 4.042735 4.510708 -9.089222 0.000000 -0.000000 0.000000 1.242752 -4.603905 -0.924760 0.526367 -1.387471 14.994622 -0.321218 -12.381896 -10.852015 0.000000 -0.000000 0.000000 1.124442 1.796349 10.006579 -5.937802 4.515248 -3.469768 -1.911332 1.129245 -0.874609 6.282251 -9.617204 -8.209857 0.398951 -1.919160 9.140391 -26.548650 0.930799 2.881049 -55.727491 2.339889 11.505608 8.687599 -28.760615 9.599486 4.176770 -4.222850 -17.896234 6.307500 23.932050 -5.406639 23.692333 44.699881 0.797761 -10.690879 28.800262 3.049712 2.913763 9.236642 3.509472 
-0.113804 0.281654 0.997332 95.920639 1.089806 85.882679 0.397009 -0.844800 3.660620 -4.589891 -13.083542 5.172527 3.796172 4.940835 -8.892395 0.000000 -0.000000 0.000000 1.522626 -4.329303 -1.411887 0.364453 -1.022455 14.880531 -0.275874 -12.851449 -10.809526 0.000000 -0.000000 0.000000 1.461844 1.465912 11.402643 -6.580215 4.747799 -5.929178 -2.124219 1.153288 -1.405216 6.940754 -10.742875 -7.951142 0.438084 -1.996733 9.983434 -25.752110 1.435839 2.365056 -55.537020 3.772680 11.684883 7.701198 -29.401661 10.322795 5.004353 -3.416355 -17.938600 4.004064 24.871256 -6.905675 23.557827 47.421568 0.541268 -11.061489 29.374728 0.422828 1.138849 6.969923 6.010910 
-0.113233 0.281552 0.998188 96.455422 1.039844 86.102914 0.295402 -0.826304 3.574240 -4.346675 -13.380561 4.944368 3.727888 4.956477 -8.776227 0.000000 -0.000000 0.000000 1.599087 -4.074590 -1.548186 0.250457 -0.927359 14.878589 -0.100854 -13.015000 -10.876195 0.000000 -0.000000 0.000000 2.138501 1.223960 11.908899 -7.342768 4.936962 -6.557124 -2.391955 1.384380 -1.695245 7.214624 -12.520797 -7.618828 0.711051 -1.802311 9.726454 -25.245706 0.839735 2.404731 -55.631193 3.935682 11.705492 7.403251 -28.611535 10.580575 5.776415 -3.813663 -18.567146 0.342900 26.375898 -8.562428 19.669123 48.340500 -2.488635 -11.781337 30.671993 -1.264181 -0.967570 7.197731 4.672464 
-0.112288 0.281484 0.998921 96.782569 1.069912 86.292339 0.348913 -0.702374 3.401702 -4.274186 -13.538015 4.984118 3.658441 4.918105 -8.720310 0.000000 -0.000000 0.000000 1.704562 -3.701394 -1.673215 0.282973 -0.797395 15.026980 -0.041210 -13.256209 -10.943751 0.000000 -0.000000 0.000000 2.856566 1.127592 12.140212 -8.113772 5.368028 -6.902390 -2.772834 1.468379 -2.073244 7.861641 -13.881787 -7.002673 0.730527 -1.664845 9.682740 -24.934852 0.267701 2.325164 -55.571075 4.530909 11.608528 8.119000 -29.487134 10.420182 3.551943 -3.671815 -16.787102 -3.206818 26.838777 -10.409600 15.538765 49.544316 -6.594514 -13.563063 30.237939 -4.497397 -0.872711 7.667603 3.800663 
-0.110997 0.281606 0.998591 97.174748 1.076209 86.446832 0.319480 -0.707503 3.123279 -4.226246 -13.777198 5.300187 3.564344 5.039389 -8.629399 0.000000 -0.000000 0.000000 1.787932 -3.814283 -1.787439 0.264474 -0.557321 15.065933 -0.212054 -13.356137 -11.135233 0.000000 -0.000000 0.000000 3.729617 1.045382 12.230906 -8.840402 5.469624 -7.340200 -3.066839 1.464919 -2.392692 7.270459 -15.961702 -5.198896 1.393937 -0.836403 9.293817 -24.819133 -0.821126 2.512449 -56.022360 5.336096 11.632355 8.719157 -28.272634 9.216175 5.188894 -3.916048 -17.824823 -6.744433 27.963622 -11.733815 9.595949 48.617640 -11.897367 -15.547058 29.885571 -7.827161 -0.989986 7.489478 2.707658 
-0.109068 0.281779 0.998997 97.543469 0.992691 86.838695 0.213876 -0.743935 2.792773 -4.206680 -14.129993 5.477395 3.542597 5.081301 -8.800496 0.000000 -0.000000 0.000000 1.826660 -4.135677 -1.941959 0.208937 0.021926 15.019540 0.082059 -13.726073 -11.139098 0.000000 -0.000000 0.000000 4.142205 0.751066 12.552050 -9.463261 5.654617 -8.118415 -3.275974 1.194138 -1.989861 7.973115 -16.797625 -6.003943 1.125204 -0.138320 9.138544 -24.472578 0.413043 1.576008 -56.309138 4.921760 11.360589 8.272830 -28.043933 10.743238 5.930774 -3.974998 -19.046969 -9.663615 26.233549 -13.533957 3.999508 49.435954 -17.219117 -16.061780 28.519118 -9.725351 -4.157064 8.195188 3.026505 
-0.106616 0.282241 0.998872 98.096631 1.021760 86.838853 0.297486 -0.654373 2.898780 -4.259932 -14.689421 5.621641 3.546727 4.953218 -8.862909 0.000000 -0.000000 0.000000 1.930000 -4.325018 -1.418238 0.147664 0.092016 14.554269 0.135663 -14.018991 -11.069142 0.000000 -0.000000 0.000000 4.510644 0.531950 12.608846 -9.817272 5.560391 -8.246348 -3.280408 0.993802 -1.825595 7.937069 -17.866291 -5.316093 1.433688 0.859279 8.603809 -24.457720 0.480495 1.367619 -57.008491 5.057746 11.117817 9.008762 -27.170506 10.381131 6.628187 -3.507788 -19.583518 -11.662844 25.219866 -14.647817 -0.756530 47.878544 -21.434408 -17.137890 27.617862 -11.825861 -5.418454 8.679579 2.160745 
